<svg viewBox="0 0 100 100" fill="none" xmlns="http://www.w3.org/2000/svg">
  <mask id="tool-mask-white">
    <rect width="100" height="100" fill="white"/>
    <g transform="rotate(-45 50 60)">
      <rect x="25" y="58" width="50" height="4" fill="black"/>
      <rect x="75" y="56" width="4" height="8" fill="black"/>
    </g>
    <g transform="rotate(-45 65 75)">
      <path d="M40,75 L80,75 M80,70 A5,5 0 1 1 80,80" stroke="black" stroke-width="4" fill="none"/>
      <circle cx="85" cy="75" r="4" fill="black"/>
    </g>
  </mask>
  <g mask="url(#tool-mask-white)">
     <path d="M78.6,41.4c-2.4-1.8-6.4-2.8-9.1-2.8c-3.9,0-8,1.4-10.3,2.8c-2.3,1.4-5.5,2.8-10.3,2.8c-4.7,0-8-1.4-10.3-2.8c-2.3-1.4-6.4-2.8-10.3-2.8c-2.7,0-6.7,1-9.1,2.8c-11.1,2.8-13.4,9.8-13.4,18.8c0,11.7,7.5,27.1,14.7,27.1c3.7,0,6.5-1.4,10.3-2.8c3.8-1.4,7-2.8,10.3-2.8c3.2,0,6.5,1.4,10.3,2.8c3.8,1.4,6.6,2.8,10.3,2.8c7.2,0,14.7-15.4,14.7-27.1C92,51.2,89.7,44.2,78.6,41.4z" fill="white"/>
     <path d="M67.2,35.2c0-5.5-4.4-9.9-9.9-9.9c0,5.5,4.4,9.9,9.9,9.9z" fill="white"/>
  </g>
</svg>
